SplineFontDB: 3.0
FontName: NyStormningHf
FullName: Ny Stormning Halvfet
FamilyName: Ny Stormning
Weight: Halvfet
Copyright: Copyright (c) 2016, Mew Too/Cannot Into Space Fonts, Robert Jablonski/Cannot Into Space Fonts, All Rights Reserved.
Version: 0.90
ItalicAngle: 0
UnderlinePosition: -100
UnderlineWidth: 50
Ascent: 800
Descent: 200
InvalidEm: 0
sfntRevision: 0x0000e666
LayerCount: 2
Layer: 0 0 "Back" 1
Layer: 1 0 "Fore" 0
XUID: [1021 908 -2008021153 2583112]
StyleMap: 0x0000
FSType: 0
OS2Version: 4
OS2_WeightWidthSlopeOnly: 0
OS2_UseTypoMetrics: 1
CreationTime: 1422214609
ModificationTime: 1452319701
PfmFamily: 33
TTFWeight: 700
TTFWidth: 5
LineGap: 90
VLineGap: 0
Panose: 2 0 5 3 0 0 0 0 0 0
OS2TypoAscent: 800
OS2TypoAOffset: 0
OS2TypoDescent: -200
OS2TypoDOffset: 0
OS2TypoLinegap: 90
OS2WinAscent: 904
OS2WinAOffset: 0
OS2WinDescent: 1
OS2WinDOffset: 0
HheadAscent: 904
HheadAOffset: 0
HheadDescent: -1
HheadDOffset: 0
OS2SubXSize: 650
OS2SubYSize: 699
OS2SubXOff: 0
OS2SubYOff: 140
OS2SupXSize: 650
OS2SupYSize: 699
OS2SupXOff: 0
OS2SupYOff: 479
OS2StrikeYSize: 49
OS2StrikeYPos: 258
OS2CapHeight: 860
OS2XHeight: 860
OS2FamilyClass: 2048
OS2Vendor: 'CiSf'
OS2CodePages: 00000001.00000000
OS2UnicodeRanges: 00000007.00000000.00000000.00000000
Lookup: 258 0 0 "'kern' Horizontal Kerning in Latin lookup 0" { "'kern' Horizontal Kerning in Latin lookup 0 subtable"  } ['kern' ('DFLT' <'dflt' > 'latn' <'dflt' > ) ]
MarkAttachClasses: 1
DEI: 91125

StartChar: .notdef
Encoding: 65536 -1 0
Width: 445
Flags: W
HStem: 0 60<73 363> 478 60<73 363>
VStem: 13 60<60 478> 363 60<60 478>
LayerCount: 2
Fore
SplineSet
73 478 m 1
 73 60 l 1
 363 60 l 1
 363 478 l 1
 73 478 l 1
423 0 m 1
 13 0 l 1
 13 538 l 1
 423 538 l 1
 423 0 l 1
EndSplineSet
EndChar

StartChar: comma
Encoding: 44 44 2
Width: 210
Flags: W
HStem: 309 186<43.4514 157.362>
VStem: 11 180<342.994 461.006>
LayerCount: 2
Fore
SplineSet
100 309 m 0
 51 309 11 351 11 402 c 0
 11 453 51 495 100 495 c 0
 149 495 191 453 191 402 c 0
 191 351 149 309 100 309 c 0
EndSplineSet
EndChar

StartChar: period
Encoding: 46 46 3
Width: 212
Flags: W
HStem: 161 187<45.0447 158.955> 420 187<46.0447 159.955>
VStem: 12 180<194.994 313.413 454.587 573.006>
LayerCount: 2
Fore
SplineSet
102 161 m 0
 53 161 12 203 12 254 c 0
 12 305 53 348 102 348 c 0
 151 348 192 305 192 254 c 0
 192 203 151 161 102 161 c 0
103 420 m 0
 54 420 13 463 13 514 c 0
 13 565 54 607 103 607 c 0
 152 607 193 565 193 514 c 0
 193 463 152 420 103 420 c 0
EndSplineSet
EndChar

StartChar: zero
Encoding: 48 48 4
Width: 832
Flags: W
HStem: 0 21G<337 493> 365 130<247.486 337 493 580.419> 807 20G<243 585>
VStem: 13 144<554.179 646.647> 337 156<0 367.17 495 701> 673 144<554.325 646.993>
CounterMasks: 1 1c
LayerCount: 2
Fore
SplineSet
493 701 m 1
 493 495 l 1
 588 503 672 543 673 601 c 1
 669 655 626 676 493 701 c 1
493 365 m 1
 493 0 l 1
 337 0 l 1
 337 365 l 1
 176 385 15 508 13 599 c 0
 18 696 144 819 342 827 c 1
 486 827 l 1
 684 819 812 696 817 599 c 0
 815 507 651 385 493 365 c 1
157 601 m 1
 158 542 244 502 337 495 c 1
 337 701 l 1
 201 675 161 654 157 601 c 1
EndSplineSet
EndChar

StartChar: one
Encoding: 49 49 5
Width: 426
Flags: W
HStem: 0 21G<18 165> 754 106<165 410>
VStem: 18 147<0 754>
LayerCount: 2
Fore
SplineSet
165 754 m 1
 165 0 l 1
 18 0 l 1
 18 860 l 1
 410 860 l 1
 410 754 l 1
 165 754 l 1
EndSplineSet
EndChar

StartChar: two
Encoding: 50 50 6
Width: 429
Flags: W
HStem: 0 21G<18 165> 611 105<165 411> 754 106<165 411>
VStem: 18 147<0 611 716 754>
LayerCount: 2
Fore
SplineSet
165 0 m 1
 18 0 l 1
 18 860 l 1
 411 860 l 1
 411 754 l 1
 165 754 l 1
 165 716 l 1
 411 716 l 1
 411 611 l 1
 165 611 l 1
 165 0 l 1
EndSplineSet
EndChar

StartChar: three
Encoding: 51 51 7
Width: 430
Flags: W
HStem: 0 21G<18 165> 471 107<165 410> 613 104<165 410> 754 106<165 410>
VStem: 18 392<471 578 613 717 754 860> 18 147<0 471 578 613 717 754>
LayerCount: 2
Fore
SplineSet
165 0 m 1xf4
 18 0 l 1xf4
 18 860 l 1
 410 860 l 1
 410 754 l 1xf8
 165 754 l 1
 165 717 l 1xf4
 410 717 l 1
 410 613 l 1xf8
 165 613 l 1
 165 578 l 1xf4
 410 578 l 1
 410 471 l 1xf8
 165 471 l 1
 165 0 l 1xf4
EndSplineSet
EndChar

StartChar: four
Encoding: 52 52 8
Width: 432
Flags: W
HStem: 0 21G<18 165> 331 107<165 410> 471 107<165 410> 613 104<165 410> 754 106<165 410>
VStem: 18 392<331 438 471 578 613 717 754 860> 18 147<0 331 438 471 578 613 717 754>
LayerCount: 2
Fore
SplineSet
165 0 m 1xfa
 18 0 l 1xfa
 18 860 l 1
 410 860 l 1
 410 754 l 1xfc
 165 754 l 1
 165 717 l 1xfa
 410 717 l 1
 410 613 l 1xfc
 165 613 l 1
 165 578 l 1xfa
 410 578 l 1
 410 471 l 1xfc
 165 471 l 1
 165 438 l 1xfa
 410 438 l 1
 410 331 l 1xfc
 165 331 l 1
 165 0 l 1xfa
EndSplineSet
EndChar

StartChar: five
Encoding: 53 53 9
Width: 513
Flags: W
HStem: 0 21G<18 174> 365 130<174 262.4> 807 20G<18.9758 267>
VStem: 18 156<0 367.17 495 701> 354 144<554.325 645.942>
LayerCount: 2
Fore
SplineSet
173 701 m 1
 173 495 l 1
 268 503 353 543 354 601 c 1
 350 654 306 676 173 701 c 1
18 0 m 1
 19 827 l 1
 168 827 l 1
 366 819 493 696 498 599 c 0
 496 507 332 385 174 365 c 1
 174 0 l 1
 18 0 l 1
EndSplineSet
EndChar

StartChar: six
Encoding: 54 54 10
Width: 513
Flags: W
HStem: 0 21G<18 174> 306 69<224 354> 807 20G<18.9758 267>
VStem: 18 156<0 306 495 701> 354 144<554.469 645.835>
LayerCount: 2
Fore
SplineSet
18 0 m 1
 19 827 l 1
 168 827 l 1
 366 819 493 696 498 599 c 0
 498 598 l 0
 496 515 364 410 224 375 c 1
 354 375 l 1
 354 306 l 1
 174 306 l 1
 174 0 l 1
 18 0 l 1
173 701 m 1
 173 495 l 1
 268 503 353 543 354 601 c 1
 350 654 306 676 173 701 c 1
EndSplineSet
EndChar

StartChar: seven
Encoding: 55 55 11
Width: 512
Flags: W
HStem: 0 21G<18 174> 218 69<174 354> 306 69<224 354> 807 20G<18.9758 267>
VStem: 18 156<0 218 287 306 495 701> 354 144<554.469 645.835>
LayerCount: 2
Fore
SplineSet
18 0 m 1
 19 827 l 1
 168 827 l 1
 366 819 493 696 498 599 c 0
 498 598 l 0
 496 515 364 410 224 375 c 1
 354 375 l 1
 354 306 l 1
 174 306 l 1
 174 287 l 1
 354 287 l 1
 354 218 l 1
 174 218 l 1
 174 0 l 1
 18 0 l 1
173 701 m 1
 173 495 l 1
 268 503 353 543 354 601 c 1
 350 654 306 676 173 701 c 1
EndSplineSet
EndChar

StartChar: eight
Encoding: 56 56 12
Width: 512
Flags: W
HStem: 0 21G<18 174> 130 69<174 354> 218 69<174 354> 306 69<224 354> 807 20G<18.9758 267>
VStem: 18 156<0 130 199 218 287 306 495 701> 354 144<554.469 645.835>
LayerCount: 2
Fore
SplineSet
18 0 m 1
 19 827 l 1
 168 827 l 1
 366 819 493 696 498 599 c 0
 498 598 l 0
 496 515 364 410 224 375 c 1
 354 375 l 1
 354 306 l 1
 174 306 l 1
 174 287 l 1
 354 287 l 1
 354 218 l 1
 174 218 l 1
 174 199 l 1
 354 199 l 1
 354 130 l 1
 174 130 l 1
 174 0 l 1
 18 0 l 1
173 701 m 1
 173 495 l 1
 268 503 353 543 354 601 c 1
 350 654 306 676 173 701 c 1
EndSplineSet
EndChar

StartChar: nine
Encoding: 57 57 13
Width: 512
Flags: W
HStem: 0 21G<18 174> 45 67<174 354> 130 69<174 354> 218 69<174 354> 306 69<224 354> 807 20G<18.9758 267>
VStem: 18 336<45 112 130 199 218 287 306 375> 18 156<0 45 112 130 199 218 287 306 495 701> 354 144<554.469 645.835>
LayerCount: 2
Fore
SplineSet
18 0 m 1xfd
 19 827 l 1
 168 827 l 1
 366 819 493 696 498 599 c 0
 498 598 l 0xfd80
 496 515 364 410 224 375 c 1
 354 375 l 1
 354 306 l 1xfe
 174 306 l 1
 174 287 l 1xfd
 354 287 l 1
 354 218 l 1xfe
 174 218 l 1
 174 199 l 1xfd
 354 199 l 1
 354 130 l 1xfe
 174 130 l 1
 174 112 l 1xfd
 354 112 l 1
 354 45 l 1xfe
 174 45 l 1
 174 0 l 1
 18 0 l 1xfd
173 701 m 1
 173 495 l 1
 268 503 353 543 354 601 c 1
 350 654 306 676 173 701 c 1
EndSplineSet
EndChar

StartChar: colon
Encoding: 58 58 14
Width: 745
Flags: W
HStem: 1 21G<191.028 276 462 544.972>
LayerCount: 2
Fore
SplineSet
553 1 m 1
 462 2 l 1
 276 2 l 1
 183 1 l 1
 297 285 l 1
 13 171 l 1
 13 542 l 1
 297 428 l 1
 183 712 l 1
 276 711 l 1
 460 711 l 1
 553 712 l 1
 439 428 l 1
 723 542 l 1
 723 171 l 1
 439 285 l 1
 553 1 l 1
EndSplineSet
EndChar

StartChar: at
Encoding: 64 64 15
Width: 847
Flags: W
HStem: 0 21G<18 165 492 639> 840 20G<18 236.849>
VStem: 18 147<0 569 683 753> 492 147<0 741>
LayerCount: 2
Fore
SplineSet
639 741 m 1
 639 0 l 1
 492 0 l 1
 492 750 l 1
 328 677 l 1
 317 713 l 1
 165 753 l 1
 165 683 l 1
 314 645 l 1
 280 538 l 1
 165 569 l 1
 165 0 l 1
 18 0 l 1
 18 860 l 1
 161 860 l 1
 362 807 l 1
 362 807 550 896 568 904 c 0
 570 905 l 1
 836 776 l 1
 804 668 l 1
 639 741 l 1
EndSplineSet
EndChar

StartChar: A
Encoding: 65 65 16
Width: 373
Flags: W
HStem: 0 21G<17 159> 840 20G<17 233.846>
VStem: 17 142<0 563 675 745>
LayerCount: 2
Fore
SplineSet
17 0 m 1
 17 860 l 1
 155 860 l 1
 360 808 l 1
 328 701 l 1
 159 745 l 1
 159 675 l 1
 313 637 l 1
 279 532 l 1
 159 563 l 1
 159 0 l 1
 17 0 l 1
EndSplineSet
EndChar

StartChar: B
Encoding: 66 66 17
Width: 537
Flags: W
HStem: 0 21G<17 183.895> 817 20G<17 183.895>
VStem: 17 142<130 388 439 697>
LayerCount: 2
Fore
SplineSet
159 130 m 1
 349 261 l 1
 159 388 l 1
 159 130 l 1
159 697 m 1
 159 439 l 1
 349 566 l 1
 159 697 l 1
527 266 m 1
 156 0 l 1
 17 0 l 1
 17 837 l 1
 156 837 l 1
 527 571 l 1
 303 419 l 1
 527 266 l 1
EndSplineSet
EndChar

StartChar: C
Encoding: 67 67 18
Width: 346
Flags: W
VStem: 10 316
LayerCount: 2
Fore
SplineSet
10 430 m 1
 326 852 l 1
 325 647 l 1
 167 430 l 1
 325 213 l 1
 326 8 l 1
 10 430 l 1
EndSplineSet
EndChar

StartChar: D
Encoding: 68 68 19
Width: 666
Flags: W
HStem: 0 21G<17 168.391 490.543 643> 840 20G<17 168.391 490.543 643>
VStem: 17 125<234 626> 518 125<234 626>
LayerCount: 2
Fore
SplineSet
518 234 m 1
 518 626 l 1
 404 430 l 1
 518 234 l 1
142 626 m 1
 142 234 l 1
 255 430 l 1
 142 626 l 1
157 -0 m 1
 17 0 l 1
 17 860 l 1
 157 860 l 1
 329 558 l 1
 502 860 l 1
 643 860 l 1
 643 0 l 1
 502 0 l 1
 329 302 l 1
 157 -0 l 1
EndSplineSet
EndChar

StartChar: E
Encoding: 69 69 20
Width: 715
Flags: W
HStem: 0 21G<17 159 550 692>
VStem: 17 142<0 705> 550 142<0 705>
LayerCount: 2
Fore
SplineSet
550 0 m 1
 550 705 l 1
 354 576 l 1
 159 705 l 1
 159 0 l 1
 17 0 l 1
 17 903 l 1
 84 904 l 1
 355 698 l 1
 625 904 l 1
 692 903 l 1
 692 0 l 1
 550 0 l 1
EndSplineSet
EndChar

StartChar: F
Encoding: 70 70 21
Width: 525
Flags: W
HStem: -0 21G<17 159> 841 20G<17 159 336.509 516>
VStem: 17 142<1 208 397 461 649 861>
LayerCount: 2
Fore
SplineSet
159 -0 m 1
 17 1 l 1
 17 861 l 1
 159 861 l 1
 159 649 l 1
 355 861 l 1
 516 861 l 1
 159 461 l 1
 159 397 l 1
 357 601 l 1
 518 601 l 1
 159 208 l 1
 159 -0 l 1
EndSplineSet
EndChar

StartChar: G
Encoding: 71 71 22
Width: 625
Flags: W
HStem: 0 21G<17 159> 737 116<250.764 337.829> 840 20G<17 159 491 612>
VStem: 17 142<0 418.385 530 860> 238 113<750.255 839.745>
LayerCount: 2
Fore
SplineSet
159 860 m 1xb8
 159 530 l 1
 273 575 440 712 491 857 c 0
 492 860 l 1
 612 860 l 1
 611 854 l 0
 567 673 331 476 159 412 c 1
 159 0 l 1
 17 0 l 1
 17 860 l 1
 159 860 l 1xb8
294 737 m 0xd8
 263 737 238 763 238 795 c 0
 238 827 263 853 294 853 c 0
 325 853 351 827 351 795 c 0
 351 763 325 737 294 737 c 0xd8
EndSplineSet
EndChar

StartChar: H
Encoding: 72 72 23
Width: 627
Flags: W
HStem: 0 21G<17 159 462 604> 840 20G<17 159 462 604>
VStem: 17 142<0 420 526 860> 462 142<0 341 447 860>
LayerCount: 2
Fore
SplineSet
159 0 m 1
 17 0 l 1
 17 860 l 1
 159 860 l 1
 159 526 l 1
 462 447 l 1
 462 860 l 1
 604 860 l 1
 604 0 l 1
 462 0 l 1
 462 341 l 1
 159 420 l 1
 159 0 l 1
EndSplineSet
EndChar

StartChar: I
Encoding: 73 73 24
Width: 182
Flags: W
HStem: 0 21G<17 159> 840 20G<17 159>
VStem: 17 142<0 860>
LayerCount: 2
Fore
SplineSet
159 0 m 1
 17 0 l 1
 17 860 l 1
 159 860 l 1
 159 0 l 1
EndSplineSet
EndChar

StartChar: J
Encoding: 74 74 25
Width: 578
Flags: W
HStem: 844 20G<257.012 273>
LayerCount: 2
Fore
SplineSet
566 321 m 1
 303 -9 l 1
 303 194 l 1
 411 321 l 1
 303 447 l 1
 303 650 l 1
 566 321 l 1
273 408 m 1
 273 205 l 1
 10 535 l 1
 273 864 l 1
 273 661 l 1
 165 535 l 1
 273 408 l 1
EndSplineSet
EndChar

StartChar: K
Encoding: 75 75 26
Width: 486
Flags: W
HStem: -0 21G<17 159> 841 20G<17 159 303.314 480>
VStem: 17 142<1 483 657 861>
LayerCount: 2
Fore
SplineSet
159 -0 m 1
 17 1 l 1
 17 861 l 1
 159 861 l 1
 159 657 l 1
 319 861 l 1
 480 861 l 1
 159 483 l 1
 159 -0 l 1
EndSplineSet
EndChar

StartChar: L
Encoding: 76 76 27
Width: 368
Flags: W
HStem: 0 21G<17 157>
VStem: 17 140<0 705>
LayerCount: 2
Fore
SplineSet
157 0 m 1
 17 0 l 1
 17 906 l 1
 354 739 l 1
 321 632 l 1
 157 705 l 1
 157 0 l 1
EndSplineSet
EndChar

StartChar: M
Encoding: 77 77 28
Width: 715
Flags: W
HStem: 0 21G<17 158.047 550 692>
VStem: 17 141<0 425 539 700> 550 142<0 426 539 700>
LayerCount: 2
Fore
SplineSet
158 539 m 1
 269 629 l 1
 158 700 l 1
 158 539 l 1
440 629 m 1
 550 539 l 1
 550 700 l 1
 440 629 l 1
692 0 m 1
 550 0 l 1
 550 426 l 1
 355 576 l 1
 159 425 l 1
 158 0 l 1
 17 0 l 1
 17 903 l 1
 84 904 l 1
 355 698 l 1
 625 904 l 1
 692 903 l 1
 692 0 l 1
EndSplineSet
EndChar

StartChar: N
Encoding: 78 78 29
Width: 549
Flags: W
HStem: 0 21G<197 339> 840 20G<197 339>
VStem: 197 142<0 396 548 860>
LayerCount: 2
Fore
SplineSet
521 349 m 1
 339 396 l 1
 339 0 l 1
 197 0 l 1
 197 432 l 1
 10 481 l 1
 38 589 l 1
 197 548 l 1
 197 860 l 1
 339 860 l 1
 339 512 l 1
 536 460 l 1
 521 349 l 1
EndSplineSet
EndChar

StartChar: O
Encoding: 79 79 30
Width: 375
Flags: W
HStem: 0 21G<17 159> 840 20G<17 159>
VStem: 17 142<0 289 404 462 576 860>
LayerCount: 2
Fore
SplineSet
159 0 m 1
 17 0 l 1
 17 860 l 1
 159 860 l 1
 159 576 l 1
 320 619 l 1
 348 512 l 1
 159 462 l 1
 159 404 l 1
 333 450 l 1
 361 342 l 1
 159 289 l 1
 159 0 l 1
EndSplineSet
EndChar

StartChar: P
Encoding: 80 80 31
Width: 377
Flags: W
HStem: -0 21G<25 126.78>
VStem: 17 142<164 740>
LayerCount: 2
Fore
SplineSet
25 1 m 1
 17 -7 l 1
 17 911 l 1
 25 903 l 1
 83 904 l 1
 361 777 l 1
 329 670 l 1
 159 740 l 1
 159 164 l 1
 329 234 l 1
 361 127 l 1
 83 -0 l 1
 25 1 l 1
EndSplineSet
EndChar

StartChar: Q
Encoding: 81 81 32
Width: 433
Flags: W
HStem: 0 21G<268 410> 840 20G<268 410>
VStem: 268 142<0 121 285 575 739 860>
LayerCount: 2
Fore
SplineSet
10 430 m 1
 268 739 l 1
 268 860 l 1
 410 860 l 1
 410 0 l 1
 268 0 l 1
 268 121 l 1
 10 430 l 1
268 285 m 1
 268 575 l 1
 144 430 l 1
 268 285 l 1
EndSplineSet
EndChar

StartChar: R
Encoding: 82 82 33
Width: 600
Flags: W
HStem: 0 21G<17 159 431.953 593> 815 20G<17 183.571>
VStem: 17 142<0 702>
LayerCount: 2
Fore
SplineSet
360 417 m 1
 593 0 l 1
 443 0 l 1
 253 344 l 1
 253 462 l 1
 366 555 l 1
 159 702 l 1
 159 0 l 1
 17 0 l 1
 17 835 l 1
 156 835 l 1
 542 555 l 1
 360 417 l 1
EndSplineSet
EndChar

StartChar: S
Encoding: 83 83 34
Width: 538
Flags: W
HStem: 0 21G<368 515> 786 20G<17 163>
VStem: 17 146<420 806> 368 147<0 387>
LayerCount: 2
Fore
SplineSet
17 254 m 1
 17 806 l 1
 163 806 l 1
 163 420 l 1
 260 462 351 508 444 553 c 0
 445 553 l 1
 515 552 l 1
 515 0 l 1
 368 0 l 1
 368 387 l 1
 271 345 181 298 88 253 c 0
 87 253 l 1
 17 254 l 1
EndSplineSet
EndChar

StartChar: T
Encoding: 84 84 35
Width: 558
Flags: W
HStem: 0 21G<207 347>
VStem: 207 140<0 706>
LayerCount: 2
Fore
SplineSet
347 706 m 1
 347 0 l 1
 207 0 l 1
 207 706 l 1
 43 633 l 1
 10 740 l 1
 278 905 l 1
 544 740 l 1
 511 633 l 1
 347 706 l 1
EndSplineSet
EndChar

StartChar: U
Encoding: 85 85 36
Width: 616
Flags: W
HStem: 0 21G<17 159 448.601 607> 840 20G<17 167.465>
VStem: 17 142<0 577>
LayerCount: 2
Fore
SplineSet
17 860 m 1
 157 860 l 1
 607 0 l 1
 459 0 l 1
 159 577 l 1
 159 0 l 1
 17 0 l 1
 17 860 l 1
EndSplineSet
EndChar

StartChar: V
Encoding: 86 86 37
Width: 525
Flags: W
HStem: -0 21G<17 159> 771 89<196.712 267.877>
VStem: 17 142<1 208 397 461 649 861> 190 84<777.112 853.636>
LayerCount: 2
Fore
SplineSet
159 -0 m 1
 17 1 l 1
 17 861 l 1
 159 861 l 1
 159 649 l 1
 355 861 l 1
 516 861 l 1
 159 461 l 1
 159 397 l 1
 357 601 l 1
 518 601 l 1
 159 208 l 1
 159 -0 l 1
233 771 m 0
 209 771 190 791 190 815 c 0
 190 839 209 860 233 860 c 0
 257 860 274 838 274 815 c 0
 274 792 257 771 233 771 c 0
EndSplineSet
EndChar

StartChar: W
Encoding: 87 87 38
Width: 521
Flags: W
HStem: 0 21G<17 159> 817 20G<17 182.767>
VStem: 17 142<0 306 436 694>
LayerCount: 2
Fore
SplineSet
159 694 m 1
 159 436 l 1
 349 566 l 1
 159 694 l 1
17 835 m 1
 156 837 l 1
 512 571 l 1
 159 306 l 1
 159 0 l 1
 17 0 l 1
 17 835 l 1
EndSplineSet
EndChar

StartChar: X
Encoding: 88 88 39
Width: 795
Flags: W
HStem: 0 21G<367 515> 806 59G<17 163 627 773>
VStem: 17 146<420 806> 367 148<0 387> 627 146<448 885>
LayerCount: 2
Fore
SplineSet
773 448 m 1
 627 448 l 1
 627 885 l 1
 773 885 l 1
 773 448 l 1
17 254 m 1
 17 806 l 1
 163 806 l 1
 163 420 l 1
 260 462 351 508 444 553 c 0
 445 553 l 1
 515 552 l 1
 515 0 l 1
 367 0 l 1
 367 387 l 1
 270 345 181 298 88 253 c 0
 87 253 l 1
 17 254 l 1
EndSplineSet
EndChar

StartChar: Y
Encoding: 89 89 40
Width: 616
Flags: W
HStem: 0 21G<17 159 448.601 607> 177 117<197.764 284.829> 840 20G<17 167.465>
VStem: 17 142<0 577> 185 113<190.662 280.745>
LayerCount: 2
Fore
SplineSet
17 860 m 1
 157 860 l 1
 607 0 l 1
 459 0 l 1
 159 577 l 1
 159 0 l 1
 17 0 l 1
 17 860 l 1
241 177 m 0
 210 177 185 204 185 236 c 0
 185 268 210 294 241 294 c 0
 272 294 298 268 298 236 c 0
 298 204 272 177 241 177 c 0
EndSplineSet
EndChar

StartChar: Z
Encoding: 90 90 41
Width: 560
Flags: W
HStem: 865 20G<208 348>
VStem: 208 140<461 885>
LayerCount: 2
Fore
SplineSet
208 461 m 1
 208 885 l 1
 348 885 l 1
 348 461 l 1
 512 534 l 1
 545 426 l 1
 278 259 l 1
 11 426 l 1
 44 534 l 1
 208 461 l 1
EndSplineSet
EndChar

StartChar: a
Encoding: 97 97 42
Width: 373
Flags: W
HStem: 0 21G<17 159> 840 20G<17 233.846>
VStem: 17 142<0 563 675 744>
LayerCount: 2
Fore
SplineSet
17 0 m 1
 17 860 l 1
 155 860 l 1
 360 808 l 1
 328 700 l 1
 159 744 l 1
 159 675 l 1
 313 637 l 1
 279 531 l 1
 159 563 l 1
 159 0 l 1
 17 0 l 1
EndSplineSet
EndChar

StartChar: b
Encoding: 98 98 43
Width: 368
Flags: W
HStem: 0 21G<17 159> 840 20G<17 159>
VStem: 17 142<0 310 424 493 606 860>
LayerCount: 2
Fore
SplineSet
17 0 m 1
 17 860 l 1
 159 860 l 1
 159 606 l 1
 274 637 l 1
 308 531 l 1
 159 493 l 1
 159 424 l 1
 328 468 l 1
 355 361 l 1
 159 310 l 1
 159 0 l 1
 17 0 l 1
EndSplineSet
EndChar

StartChar: c
Encoding: 99 99 44
Width: 370
Flags: W
HStem: 865 20G<17 157>
VStem: 17 140<461 885>
LayerCount: 2
Fore
SplineSet
17 257 m 1
 17 885 l 1
 157 885 l 1
 157 461 l 1
 321 534 l 1
 354 425 l 1
 17 257 l 1
EndSplineSet
EndChar

StartChar: d
Encoding: 100 100 45
Width: 386
Flags: W
HStem: 0 21G<207 347>
VStem: 207 140<0 402.923 405.03 705>
LayerCount: 2
Fore
SplineSet
347 344 m 1
 347 0 l 1
 207 0 l 1
 207 348 l 1
 195 364 189 384 189 404 c 0
 189 424 196 444 207 459 c 1
 207 705 l 1
 43 632 l 1
 10 739 l 1
 347 906 l 1
 347 463 l 1
 360 446 369 426 369 404 c 0
 369 381 359 359 347 344 c 1
EndSplineSet
EndChar

StartChar: e
Encoding: 101 101 46
Width: 715
Flags: W
HStem: 0 21G<17 159 550 692>
VStem: 17 142<0 705> 550 142<0 705>
LayerCount: 2
Fore
SplineSet
550 0 m 1
 550 705 l 1
 354 576 l 1
 159 705 l 1
 159 0 l 1
 17 0 l 1
 17 903 l 1
 84 904 l 1
 355 698 l 1
 625 904 l 1
 692 903 l 1
 692 0 l 1
 550 0 l 1
EndSplineSet
EndChar

StartChar: f
Encoding: 102 102 47
Width: 525
Flags: W
HStem: -0 21G<17 159> 841 20G<17 159 336.509 516>
VStem: 17 142<1 208 397 461 649 861>
LayerCount: 2
Fore
SplineSet
159 -0 m 1
 17 1 l 1
 17 861 l 1
 159 861 l 1
 159 649 l 1
 355 861 l 1
 516 861 l 1
 159 461 l 1
 159 397 l 1
 357 601 l 1
 518 601 l 1
 159 208 l 1
 159 -0 l 1
EndSplineSet
EndChar

StartChar: g
Encoding: 103 103 48
Width: 650
Flags: W
HStem: 0 21G<8 167.06 479.874 639> 840 20G<8 167.06 479.874 639>
LayerCount: 2
Fore
SplineSet
398 430 m 1
 639 -0 l 1
 491 0 l 1
 323 302 l 1
 156 0 l 1
 8 0 l 1
 249 430 l 1
 8 860 l 1
 156 860 l 1
 323 558 l 1
 491 860 l 1
 639 860 l 1
 398 430 l 1
EndSplineSet
EndChar

StartChar: h
Encoding: 104 104 49
Width: 511
Flags: W
HStem: 0 21G<182 324> 363 134<14 182 324 491> 840 20G<182 324>
VStem: 182 142<0 363 497 860>
LayerCount: 2
Fore
SplineSet
182 497 m 1
 182 860 l 1
 324 860 l 1
 324 497 l 1
 491 497 l 1
 491 363 l 1
 324 363 l 1
 324 0 l 1
 182 0 l 1
 182 363 l 1
 14 363 l 1
 14 497 l 1
 182 497 l 1
EndSplineSet
EndChar

StartChar: i
Encoding: 105 105 50
Width: 182
Flags: W
HStem: 0 21G<17 159> 840 20G<17 159>
VStem: 17 142<0 860>
LayerCount: 2
Fore
SplineSet
159 0 m 1
 17 0 l 1
 17 860 l 1
 159 860 l 1
 159 0 l 1
EndSplineSet
EndChar

StartChar: j
Encoding: 106 106 51
Width: 578
Flags: W
HStem: 844 20G<257.012 273>
LayerCount: 2
Fore
SplineSet
566 321 m 1
 303 -9 l 1
 303 194 l 1
 411 321 l 1
 303 447 l 1
 303 650 l 1
 566 321 l 1
273 408 m 1
 273 205 l 1
 10 535 l 1
 273 864 l 1
 273 661 l 1
 165 535 l 1
 273 408 l 1
EndSplineSet
EndChar

StartChar: k
Encoding: 107 107 52
Width: 486
Flags: W
HStem: -0 21G<17 159> 841 20G<17 159 303.314 480>
VStem: 17 142<1 483 657 861>
LayerCount: 2
Fore
SplineSet
159 -0 m 1
 17 1 l 1
 17 861 l 1
 159 861 l 1
 159 657 l 1
 319 861 l 1
 480 861 l 1
 159 483 l 1
 159 -0 l 1
EndSplineSet
EndChar

StartChar: l
Encoding: 108 108 53
Width: 368
Flags: W
HStem: 0 21G<17 157>
VStem: 17 140<0 705>
LayerCount: 2
Fore
SplineSet
157 0 m 1
 17 0 l 1
 17 906 l 1
 354 739 l 1
 321 632 l 1
 157 705 l 1
 157 0 l 1
EndSplineSet
EndChar

StartChar: m
Encoding: 109 109 54
Width: 715
Flags: W
HStem: 0 21G<17 158.047 550 692>
VStem: 17 141<0 425 539 700> 550 142<0 426 539 700>
LayerCount: 2
Fore
SplineSet
158 539 m 1
 269 629 l 1
 158 700 l 1
 158 539 l 1
440 629 m 1
 550 539 l 1
 550 700 l 1
 440 629 l 1
692 0 m 1
 550 0 l 1
 550 426 l 1
 355 576 l 1
 159 425 l 1
 158 0 l 1
 17 0 l 1
 17 903 l 1
 84 904 l 1
 355 698 l 1
 625 904 l 1
 692 903 l 1
 692 0 l 1
EndSplineSet
EndChar

StartChar: n
Encoding: 110 110 55
Width: 368
Flags: W
HStem: 0 21G<17 159> 840 20G<17 159>
VStem: 17 142<0 393 507 860>
LayerCount: 2
Fore
SplineSet
159 0 m 1
 17 0 l 1
 17 860 l 1
 159 860 l 1
 159 507 l 1
 355 456 l 1
 330 349 l 1
 159 393 l 1
 159 0 l 1
EndSplineSet
EndChar

StartChar: o
Encoding: 111 111 56
Width: 542
Flags: W
HStem: 0 21G<6 173.953 360.857 532> 743 20G<253.75 286.125>
LayerCount: 2
Fore
SplineSet
373 444 m 1
 270 565 l 1
 165 444 l 1
 270 324 l 1
 373 444 l 1
10 443 m 1
 270 763 l 1
 528 443 l 1
 350 224 l 1
 532 -0 l 1
 378 0 l 1
 270 126 l 1
 156 -1 l 1
 6 0 l 1
 188 224 l 1
 10 443 l 1
EndSplineSet
EndChar

StartChar: p
Encoding: 112 112 57
Width: 377
Flags: W
HStem: -0 21G<25 126.78>
VStem: 17 142<163 739>
LayerCount: 2
Fore
SplineSet
25 1 m 1
 17 -7 l 1
 17 911 l 1
 25 903 l 1
 83 904 l 1
 361 776 l 1
 329 669 l 1
 159 739 l 1
 159 163 l 1
 329 234 l 1
 361 127 l 1
 83 -0 l 1
 25 1 l 1
EndSplineSet
EndChar

StartChar: q
Encoding: 113 113 58
Width: 433
Flags: W
HStem: 0 21G<268 410> 840 20G<268 410>
VStem: 268 142<0 121 285 575 739 860>
LayerCount: 2
Fore
SplineSet
10 430 m 1
 268 739 l 1
 268 860 l 1
 410 860 l 1
 410 0 l 1
 268 0 l 1
 268 121 l 1
 10 430 l 1
268 285 m 1
 268 575 l 1
 144 430 l 1
 268 285 l 1
EndSplineSet
EndChar

StartChar: r
Encoding: 114 114 59
Width: 600
Flags: W
HStem: 0 21G<17 159 431.953 593> 805 20G<17 183.87>
VStem: 17 142<0 702>
LayerCount: 2
Fore
SplineSet
360 412 m 1
 593 0 l 1
 443 0 l 1
 253 344 l 1
 253 462 l 1
 366 555 l 1
 159 702 l 1
 159 0 l 1
 17 0 l 1
 17 825 l 1
 156 825 l 1
 542 548 l 1
 360 412 l 1
EndSplineSet
EndChar

StartChar: s
Encoding: 115 115 60
Width: 181
Flags: W
HStem: 865 20G<17 159>
VStem: 17 142<448 885>
LayerCount: 2
Fore
SplineSet
159 448 m 1
 17 448 l 1
 17 885 l 1
 159 885 l 1
 159 448 l 1
EndSplineSet
EndChar

StartChar: t
Encoding: 116 116 61
Width: 370
Flags: W
HStem: 0 21G<207 347>
VStem: 207 140<0 705>
LayerCount: 2
Fore
SplineSet
347 906 m 1
 347 0 l 1
 207 0 l 1
 207 705 l 1
 43 632 l 1
 10 739 l 1
 347 906 l 1
EndSplineSet
EndChar

StartChar: u
Encoding: 117 117 62
Width: 616
Flags: W
HStem: 0 21G<17 159 448.601 607> 840 20G<17 167.465>
VStem: 17 142<0 577>
LayerCount: 2
Fore
SplineSet
17 860 m 1
 157 860 l 1
 607 0 l 1
 459 0 l 1
 159 577 l 1
 159 0 l 1
 17 0 l 1
 17 860 l 1
EndSplineSet
EndChar

StartChar: v
Encoding: 118 118 63
Width: 525
Flags: W
HStem: -0 21G<17 159> 771 89<196.712 267.877>
VStem: 17 142<1 208 397 461 649 861> 190 84<777.112 853.636>
LayerCount: 2
Fore
SplineSet
159 -0 m 1
 17 1 l 1
 17 861 l 1
 159 861 l 1
 159 649 l 1
 355 861 l 1
 516 861 l 1
 159 461 l 1
 159 397 l 1
 357 601 l 1
 518 601 l 1
 159 208 l 1
 159 -0 l 1
233 771 m 0
 209 771 190 791 190 815 c 0
 190 839 209 860 233 860 c 0
 257 860 274 838 274 815 c 0
 274 792 257 771 233 771 c 0
EndSplineSet
EndChar

StartChar: w
Encoding: 119 119 64
Width: 521
Flags: W
HStem: 0 21G<17 159> 807 20G<17 183.072>
VStem: 17 142<0 302 436 694>
LayerCount: 2
Fore
SplineSet
159 694 m 1
 159 436 l 1
 349 566 l 1
 159 694 l 1
17 825 m 1
 156 827 l 1
 512 564 l 1
 159 302 l 1
 159 0 l 1
 17 0 l 1
 17 825 l 1
EndSplineSet
EndChar

StartChar: x
Encoding: 120 120 65
Width: 766
Flags: W
HStem: 0 21G<487 633> 107 102<359 487 633 749> 604 103<13 135 283 403> 776 20G<135 283>
VStem: 135 148<414 604 707 796> 487 146<0 107 209 383>
LayerCount: 2
Fore
SplineSet
135 707 m 1
 135 796 l 1
 283 796 l 1
 283 707 l 1
 403 707 l 1
 403 604 l 1
 283 604 l 1
 283 414 l 1
 380 455 469 501 562 545 c 0
 563 545 l 1
 633 544 l 1
 633 209 l 1
 749 209 l 1
 749 107 l 1
 633 107 l 1
 633 0 l 1
 487 0 l 1
 487 107 l 1
 359 107 l 1
 359 209 l 1
 487 209 l 1
 487 383 l 1
 390 342 299 294 206 250 c 0
 205 250 l 1
 135 251 l 1
 135 604 l 1
 13 604 l 1
 13 707 l 1
 135 707 l 1
EndSplineSet
EndChar

StartChar: y
Encoding: 121 121 66
Width: 616
Flags: W
HStem: 0 21G<17 159 448.601 607> 177 117<197.764 284.829> 840 20G<17 167.465>
VStem: 17 142<0 577> 185 113<190.662 280.745>
LayerCount: 2
Fore
SplineSet
17 860 m 1
 157 860 l 1
 607 0 l 1
 459 0 l 1
 159 577 l 1
 159 0 l 1
 17 0 l 1
 17 860 l 1
241 177 m 0
 210 177 185 204 185 236 c 0
 185 268 210 294 241 294 c 0
 272 294 298 268 298 236 c 0
 298 204 272 177 241 177 c 0
EndSplineSet
EndChar

StartChar: z
Encoding: 122 122 67
Width: 560
Flags: W
HStem: 865 20G<208 348>
VStem: 208 140<461 885>
LayerCount: 2
Fore
SplineSet
208 461 m 1
 208 885 l 1
 348 885 l 1
 348 461 l 1
 512 534 l 1
 545 426 l 1
 278 259 l 1
 11 426 l 1
 44 534 l 1
 208 461 l 1
EndSplineSet
EndChar

StartChar: Adieresis
Encoding: 196 196 68
Width: 627
Flags: W
HStem: 0 21G<10 129 457 604> 7 116<282.764 369.829> 840 20G<457 604>
VStem: 270 113<20.2549 109.745> 457 147<0 330 441.615 860>
LayerCount: 2
Fore
SplineSet
457 0 m 1xb8
 457 330 l 1
 344 286 180 148 129 3 c 0
 128 0 l 1
 10 0 l 1
 11 6 l 0
 55 187 285 384 457 448 c 1
 457 860 l 1
 604 860 l 1
 604 0 l 1
 457 0 l 1xb8
326 123 m 0x78
 357 123 383 97 383 65 c 0
 383 33 357 7 326 7 c 0
 295 7 270 33 270 65 c 0
 270 97 295 123 326 123 c 0x78
EndSplineSet
EndChar

StartChar: Aring
Encoding: 197 197 69
Width: 570
Flags: W
HStem: 0 21G<218 365> 840 20G<218 365>
VStem: 218 147<0 328 556 860>
LayerCount: 2
Fore
SplineSet
401 442 m 1
 556 354 l 1
 497 252 l 1
 365 328 l 1
 365 0 l 1
 218 0 l 1
 218 337 l 1
 69 252 l 1
 10 354 l 1
 165 442 l 1
 10 530 l 1
 69 631 l 1
 218 546 l 1
 218 860 l 1
 365 860 l 1
 365 556 l 1
 497 631 l 1
 556 530 l 1
 401 442 l 1
EndSplineSet
EndChar

StartChar: AE
Encoding: 198 198 70
Width: 563
Flags: W
HStem: -1 21G<240.008 353>
VStem: 207 146<163 740>
LayerCount: 2
Fore
SplineSet
353 740 m 1
 353 0 l 1
 283 -1 l 1
 10 126 l 1
 42 233 l 1
 207 163 l 1
 207 903 l 1
 277 904 l 1
 550 777 l 1
 518 670 l 1
 353 740 l 1
EndSplineSet
EndChar

StartChar: Eth
Encoding: 208 208 71
Width: 429
Flags: W
HStem: 0 21G<17 159> 392 75<180.916 245.084> 840 20G<17 159>
VStem: 17 142<0 121 285 575 739 860> 177 72<395.266 464.031>
LayerCount: 2
Fore
SplineSet
159 860 m 1
 159 739 l 1
 417 430 l 1
 159 121 l 1
 159 0 l 1
 17 0 l 1
 17 860 l 1
 159 860 l 1
283 430 m 1
 159 575 l 1
 159 285 l 1
 283 430 l 1
213 392 m 0
 193 392 177 411 177 430 c 0
 177 450 193 467 213 467 c 0
 233 467 249 450 249 430 c 0
 249 411 233 392 213 392 c 0
EndSplineSet
EndChar

StartChar: Odieresis
Encoding: 214 214 72
Width: 885
Flags: W
HStem: 0 21G<10 169 367 515 713 872> 841 20G<367 515>
VStem: 367 148<0 299 457.232 861>
LayerCount: 2
Fore
SplineSet
11 7 m 0
 36 151 168 356 367 468 c 1
 367 861 l 1
 515 861 l 1
 515 468 l 1
 715 355 846 149 871 6 c 0
 872 -0 l 1
 713 0 l 1
 713 5 l 0
 718 95 611 240 515 299 c 1
 515 0 l 1
 367 0 l 1
 367 299 l 1
 270 240 164 95 169 6 c 0
 169 1 l 1
 10 1 l 1
 11 7 l 0
EndSplineSet
EndChar

StartChar: Oslash
Encoding: 216 216 73
Width: 568
Flags: W
HStem: 0 21G<207 354> 840 20G<207 354>
VStem: 207 147<0 251 407 423 575 860>
LayerCount: 2
Fore
SplineSet
354 0 m 1
 207 0 l 1
 207 251 l 1
 52 209 l 1
 24 318 l 1
 207 367 l 1
 207 423 l 1
 39 378 l 1
 11 486 l 1
 207 537 l 1
 207 860 l 1
 354 860 l 1
 354 575 l 1
 523 619 l 1
 541 509 l 1
 354 461 l 1
 354 407 l 1
 514 450 l 1
 555 345 l 1
 354 291 l 1
 354 0 l 1
EndSplineSet
EndChar

StartChar: Thorn
Encoding: 222 222 74
Width: 429
Flags: W
HStem: 0 21G<17 159> 840 20G<17 159>
VStem: 17 142<0 121 285 575 739 860>
LayerCount: 2
Fore
SplineSet
159 860 m 1
 159 739 l 1
 417 430 l 1
 159 121 l 1
 159 0 l 1
 17 0 l 1
 17 860 l 1
 159 860 l 1
283 430 m 1
 159 575 l 1
 159 285 l 1
 283 430 l 1
EndSplineSet
EndChar

StartChar: germandbls
Encoding: 223 223 75
Width: 435
Flags: W
HStem: 865 20G<17 159 271 413>
VStem: 17 142<448 885> 271 142<448 885>
LayerCount: 2
Fore
SplineSet
159 448 m 1
 17 448 l 1
 17 885 l 1
 159 885 l 1
 159 448 l 1
413 448 m 1
 271 448 l 1
 271 885 l 1
 413 885 l 1
 413 448 l 1
EndSplineSet
EndChar

StartChar: adieresis
Encoding: 228 228 76
Width: 627
Flags: W
HStem: 0 21G<10 129 457 604> 7 116<282.764 369.829> 840 20G<457 604>
VStem: 270 113<20.2549 109.745> 457 147<0 330 441.615 860>
LayerCount: 2
Fore
SplineSet
457 0 m 1xb8
 457 330 l 1
 344 286 180 148 129 3 c 0
 128 0 l 1
 10 0 l 1
 11 6 l 0
 55 187 285 384 457 448 c 1
 457 860 l 1
 604 860 l 1
 604 0 l 1
 457 0 l 1xb8
326 123 m 0x78
 357 123 383 97 383 65 c 0
 383 33 357 7 326 7 c 0
 295 7 270 33 270 65 c 0
 270 97 295 123 326 123 c 0x78
EndSplineSet
EndChar

StartChar: aring
Encoding: 229 229 77
Width: 570
Flags: W
HStem: 0 21G<218 365> 840 20G<218 365>
VStem: 218 147<0 328 556 860>
LayerCount: 2
Fore
SplineSet
401 442 m 1
 556 354 l 1
 497 252 l 1
 365 328 l 1
 365 0 l 1
 218 0 l 1
 218 337 l 1
 69 252 l 1
 10 354 l 1
 165 442 l 1
 10 530 l 1
 69 631 l 1
 218 546 l 1
 218 860 l 1
 365 860 l 1
 365 556 l 1
 497 631 l 1
 556 530 l 1
 401 442 l 1
EndSplineSet
EndChar

StartChar: ae
Encoding: 230 230 78
Width: 563
Flags: W
HStem: -1 21G<240.008 353>
VStem: 207 146<163 739>
LayerCount: 2
Fore
SplineSet
353 739 m 1
 353 0 l 1
 283 -1 l 1
 10 126 l 1
 42 233 l 1
 207 163 l 1
 207 903 l 1
 277 904 l 1
 550 776 l 1
 518 669 l 1
 353 739 l 1
EndSplineSet
EndChar

StartChar: eth
Encoding: 240 240 79
Width: 429
Flags: W
HStem: 0 21G<17 159> 392 75<180.916 245.084> 840 20G<17 159>
VStem: 17 142<0 121 285 575 739 860> 177 72<395.266 464.031>
LayerCount: 2
Fore
SplineSet
159 860 m 1
 159 739 l 1
 417 430 l 1
 159 121 l 1
 159 0 l 1
 17 0 l 1
 17 860 l 1
 159 860 l 1
283 430 m 1
 159 575 l 1
 159 285 l 1
 283 430 l 1
213 392 m 0
 193 392 177 411 177 430 c 0
 177 450 193 467 213 467 c 0
 233 467 249 450 249 430 c 0
 249 411 233 392 213 392 c 0
EndSplineSet
EndChar

StartChar: odieresis
Encoding: 246 246 80
Width: 885
Flags: W
HStem: 0 21G<10 169 367 515 713 872> 841 20G<367 515>
VStem: 367 148<0 299 457.232 861>
LayerCount: 2
Fore
SplineSet
11 7 m 0
 36 151 168 356 367 468 c 1
 367 861 l 1
 515 861 l 1
 515 468 l 1
 715 355 846 149 871 6 c 0
 872 -0 l 1
 713 0 l 1
 713 5 l 0
 718 95 611 240 515 299 c 1
 515 0 l 1
 367 0 l 1
 367 299 l 1
 270 240 164 95 169 6 c 0
 169 1 l 1
 10 1 l 1
 11 7 l 0
EndSplineSet
EndChar

StartChar: oslash
Encoding: 248 248 81
Width: 568
Flags: W
HStem: 0 21G<207 354> 840 20G<207 354>
VStem: 207 147<0 251 407 423 575 860>
LayerCount: 2
Fore
SplineSet
354 0 m 1
 207 0 l 1
 207 251 l 1
 52 209 l 1
 24 318 l 1
 207 367 l 1
 207 423 l 1
 39 378 l 1
 11 486 l 1
 207 537 l 1
 207 860 l 1
 354 860 l 1
 354 575 l 1
 523 619 l 1
 541 509 l 1
 354 461 l 1
 354 407 l 1
 514 450 l 1
 555 345 l 1
 354 291 l 1
 354 0 l 1
EndSplineSet
EndChar

StartChar: thorn
Encoding: 254 254 82
Width: 429
Flags: W
HStem: 0 21G<17 159> 840 20G<17 159>
VStem: 17 142<0 121 285 575 739 860>
LayerCount: 2
Fore
SplineSet
159 860 m 1
 159 739 l 1
 417 430 l 1
 159 121 l 1
 159 0 l 1
 17 0 l 1
 17 860 l 1
 159 860 l 1
283 430 m 1
 159 575 l 1
 159 285 l 1
 283 430 l 1
EndSplineSet
EndChar

StartChar: Eng
Encoding: 330 330 83
Width: 542
Flags: W
LayerCount: 2
Fore
SplineSet
165 430 m 1
 270 309 l 1
 373 430 l 1
 270 551 l 1
 165 430 l 1
528 430 m 1
 270 109 l 1
 10 430 l 1
 270 751 l 1
 528 430 l 1
EndSplineSet
EndChar

StartChar: eng
Encoding: 331 331 84
Width: 662
Flags: W
HStem: 0 21G<54 196> 840 20G<54 196 529 649>
VStem: 54 142<0 385.931 553.905 860>
LayerCount: 2
Fore
SplineSet
196 860 m 1
 196 572 l 1
 208 564 218 554 226 543 c 1
 338 597 482 725 529 857 c 0
 530 860 l 1
 649 860 l 1
 648 854 l 0
 608 690 408 512 245 433 c 1
 236 404 217 382 196 368 c 1
 196 0 l 1
 54 0 l 1
 54 378 l 1
 28 401 12 435 12 472 c 0
 12 510 29 543 54 565 c 1
 54 860 l 1
 196 860 l 1
EndSplineSet
EndChar

StartChar: OE
Encoding: 338 338 85
Width: 568
Flags: W
HStem: 0 21G<207 354> 840 20G<207 354>
VStem: 207 147<0 251 407 423 575 860>
LayerCount: 2
Fore
SplineSet
354 0 m 1
 207 0 l 1
 207 251 l 1
 52 209 l 1
 24 318 l 1
 207 367 l 1
 207 423 l 1
 39 378 l 1
 11 486 l 1
 207 537 l 1
 207 860 l 1
 354 860 l 1
 354 575 l 1
 523 619 l 1
 541 509 l 1
 354 461 l 1
 354 407 l 1
 514 450 l 1
 555 345 l 1
 354 291 l 1
 354 0 l 1
EndSplineSet
EndChar

StartChar: oe
Encoding: 339 339 86
Width: 568
Flags: W
HStem: 0 21G<207 354> 840 20G<207 354>
VStem: 207 147<0 251 407 423 575 860>
LayerCount: 2
Fore
SplineSet
354 0 m 1
 207 0 l 1
 207 251 l 1
 52 209 l 1
 24 318 l 1
 207 367 l 1
 207 423 l 1
 39 378 l 1
 11 486 l 1
 207 537 l 1
 207 860 l 1
 354 860 l 1
 354 575 l 1
 523 619 l 1
 541 509 l 1
 354 461 l 1
 354 407 l 1
 514 450 l 1
 555 345 l 1
 354 291 l 1
 354 0 l 1
EndSplineSet
EndChar
